# xmcd
#
# Track frame offsets:
#	150
#	9751
#	27610
#	42613
#	60323
#	80173
#	94954
#	122933
#	144008
#	158708
#	180303
#	196204
#	227347
#	244991
#	267726
#	288515
#	303369
#
# Disc length: 4478 seconds
#
# Revision: 0
# Processed by: cddbd v1.5.2PL0 Copyright (c) Steve Scherf et al.
# Submitted via: audiograbber 1.83.01
#
DISCID=e6117c11
DTITLE=Kurt Ostbahn - Ois wosd brauchst! CD3 Ollas wos I no brauch
DYEAR=2011
DGENRE=
TTITLE0=I brauch kan Dokta
TTITLE1=Echt super
TTITLE2=Wo hamma den den Fahrschein
TTITLE3=Wea is ea (feat. Birgit Denk)
TTITLE4=7x da Vakehrte
TTITLE5=Tornado
TTITLE6=Blattschuss
TTITLE7=Seit wos kan Ruass mehr regnt
TTITLE8=Wann ses mia 2 gebn
TTITLE9=De beste Zeit
TTITLE10=Spät in da Nocht
TTITLE11=Tequila Sunrise
TTITLE12=Wos red I
TTITLE13=Jede Nocht so um de zeit
TTITLE14=Wos wü de wüde Hilde
TTITLE15=Mexiko
TTITLE16=Hoit mi
EXTD=
EXTT0=
EXTT1=
EXTT2=
EXTT3=
EXTT4=
EXTT5=
EXTT6=
EXTT7=
EXTT8=
EXTT9=
EXTT10=
EXTT11=
EXTT12=
EXTT13=
EXTT14=
EXTT15=
EXTT16=
PLAYORDER=
